# xmcd
#
# Track frame offsets: 
#        150
#        15909
#        28223
#        43416
#        57613
#        71448
#        84964
#        99095
#        113212
#        126857
#        140978
#        155558
#        171317
#        184234
#        198850
#        214429
#        229031
#        244467
#        258290
#        270941
#        284133
#        297330
#        311508
#        325365
#        339989
#
# Disc length: 4715 seconds
#
# Revision: 1
# Processed by: cddbd v1.5.2PL0 Copyright (c) Steve Scherf et al.
# Submitted via: ExactAudioCopyFreeDBPlugin 1.0
#
DISCID=82126919
DTITLE=Various Artist -  Really The Blues A Blues History - Vol 1 (18
DTITLE=93-1929) [Cd5]
DYEAR=2010
DGENRE=Blues
TTITLE0=Leecan, Cooksey 1927 - My Old Dad Got A Brand New Way To Love
TTITLE1=Blind Mamie Forehand 1927 - Honey In The Rock
TTITLE2=Henry Williams 1927 - Georgia Crawl
TTITLE3=Luther Magby 1927 - Blessed Are The Poor
TTITLE4=Bix Tram 1927 - A Good Man Is Hard To Find
TTITLE5=Stoneman 1927 - I Am Resolved
TTITLE6=Burnett and Rutherford 1927 - Curley Headed Woman
TTITLE7=Doc Boggs 1927 - Down South Blues
TTITLE8=King Oliver 1927 - Black Swan Blues
TTITLE9=John Dodds 1927 - Weary Weary Blues
TTITLE10=Meade Lux Lewis 1927 - Honky Tonk Train Blues
TTITLE11=Blind Connie Rosemond 1927 - The Lord Is My Shepherd
TTITLE12=Venutti 1927 - Penn Beach Blues
TTITLE13=Sarah Martin 1927 - Black Hearse Blues
TTITLE14=BF Shelton 1927 - Cold Penitentiary Blues
TTITLE15=Ruth Etting 1927 - Shanking The Blues
TTITLE16=Walter Rhodes 1927 - The Crowing Rooster
TTITLE17=Duke Ellington 1927 - Creole Love Call
TTITLE18=Blind Joe Taggart 1927 - Gods Gonna Separate The Wheat From T
TTITLE18=he Tares
TTITLE19=Bix Beiderbecke and His Gang 1927 - Jazz Me Blues
TTITLE20=Bix Beiderbecke and His Gang 1927 - Royal Garden Blues
TTITLE21=Allen Bros 1927 - Chattanooga Blues
TTITLE22=Duke Ellington 1927 - New Orleans Lowdown
TTITLE23=Will Ezell 1927 - Barrelhouse Man
TTITLE24=Washington Phillips 1927 - I Am Born To Preach The Gospel
EXTD=
EXTT0=
EXTT1=
EXTT2=
EXTT3=
EXTT4=
EXTT5=
EXTT6=
EXTT7=
EXTT8=
EXTT9=
EXTT10=
EXTT11=
EXTT12=
EXTT13=
EXTT14=
EXTT15=
EXTT16=
EXTT17=
EXTT18=
EXTT19=
EXTT20=
EXTT21=
EXTT22=
EXTT23=
EXTT24=
PLAYORDER=
